<svg xmlns="http://www.w3.org/2000/svg" xmlns:xlink="http://www.w3.org/1999/xlink" version="1.1" x="0px" y="0px" viewBox="0 0 100 125" enable-background="new 0 0 100 100" xml:space="preserve"><path d="M84.592,35.502c-15.57,0-70.509,0-70.509,0c-14.1,0-14.1,22.42,0,22.42c0,0,54.349,0,70.509,0S100.162,35.502,84.592,35.502  z M21.123,50.722c-0.69,0-1.25-0.56-1.25-1.25c0-0.69,0.56-1.25,1.25-1.25s1.25,0.56,1.25,1.25  C22.373,50.162,21.813,50.722,21.123,50.722z M21.123,44.832c-0.69,0-1.25-0.56-1.25-1.25s0.56-1.25,1.25-1.25s1.25,0.56,1.25,1.25  S21.813,44.832,21.123,44.832z M27.022,50.722c-0.69,0-1.25-0.56-1.25-1.25c0-0.69,0.56-1.25,1.25-1.25s1.25,0.56,1.25,1.25  C28.272,50.162,27.712,50.722,27.022,50.722z M27.022,44.832c-0.69,0-1.25-0.56-1.25-1.25s0.56-1.25,1.25-1.25s1.25,0.56,1.25,1.25  S27.712,44.832,27.022,44.832z M72.652,50.722c-0.689,0-1.25-0.56-1.25-1.25c0-0.69,0.561-1.25,1.25-1.25s1.25,0.56,1.25,1.25  C73.902,50.162,73.342,50.722,72.652,50.722z M72.652,44.832c-0.689,0-1.25-0.56-1.25-1.25s0.561-1.25,1.25-1.25  s1.25,0.56,1.25,1.25S73.342,44.832,72.652,44.832z M78.543,50.722c-0.691,0-1.25-0.56-1.25-1.25c0-0.69,0.559-1.25,1.25-1.25  c0.689,0,1.25,0.56,1.25,1.25C79.793,50.162,79.232,50.722,78.543,50.722z M78.543,44.832c-0.691,0-1.25-0.56-1.25-1.25  s0.559-1.25,1.25-1.25c0.689,0,1.25,0.56,1.25,1.25S79.232,44.832,78.543,44.832z"/><text x="0" y="115" fill="#000000" font-size="5px" font-weight="bold" font-family="'Helvetica Neue', Helvetica, Arial-Unicode, Arial, Sans-serif">Created by Alberto Venegas</text><text x="0" y="120" fill="#000000" font-size="5px" font-weight="bold" font-family="'Helvetica Neue', Helvetica, Arial-Unicode, Arial, Sans-serif">from the Noun Project</text></svg>